<?xml version="1.0" standalone="no"?>
<!DOCTYPE svg PUBLIC "-//W3C//DTD SVG 20010904//EN"
 "http://www.w3.org/TR/2001/REC-SVG-20010904/DTD/svg10.dtd">
<svg version="1.0" xmlns="http://www.w3.org/2000/svg"
 width="200.000000pt" height="300.000000pt" viewBox="0 0 200.000000 300.000000"
 preserveAspectRatio="xMidYMid meet">

<g transform="translate(0.000000,300.000000) scale(0.100000,-0.100000)"
fill="#000000" stroke="none">
<path d="M0 2892 l0 -108 128 44 c70 24 136 45 147 47 11 1 41 6 68 10 58 9
77 -4 78 -54 0 -26 2 -31 8 -17 6 15 12 7 29 -39 12 -31 22 -63 22 -71 0 -20
-28 -17 -33 4 -3 9 -5 2 -6 -15 -1 -38 -31 -48 -32 -10 l0 22 -9 -22 c-11 -28
-40 -30 -47 -4 -6 24 -55 32 -90 14 -21 -11 -28 -11 -35 -1 -13 22 -9 28 20
28 26 0 28 3 24 31 -3 23 -7 27 -14 18 -7 -12 -11 -11 -20 2 -9 13 -14 11 -40
-14 -23 -24 -35 -28 -58 -23 -17 3 -30 1 -30 -4 0 -6 -7 -10 -15 -10 -8 0 -15
-4 -15 -10 0 -18 -29 -10 -44 12 -18 25 -22 7 -5 -23 8 -15 6 -25 -10 -46 -28
-34 -30 -106 -4 -96 17 6 17 5 1 -14 -16 -17 -18 -43 -18 -211 0 -167 2 -192
16 -192 8 0 13 -4 10 -9 -6 -10 16 -21 41 -21 9 0 30 -10 47 -23 50 -37 60
-42 54 -25 -4 9 0 15 9 15 9 0 18 -9 21 -19 5 -20 11 -22 31 -9 10 7 8 12 -9
24 l-23 16 26 6 c31 8 48 0 40 -20 -3 -10 1 -15 14 -15 29 0 35 11 16 32 -15
17 -15 18 4 18 12 0 23 -6 26 -14 4 -9 15 -12 32 -8 28 5 23 17 -10 25 -11 2
1 4 27 3 25 -1 41 -4 35 -8 -7 -4 0 -8 16 -8 16 0 26 4 22 10 -4 6 11 10 37
10 47 0 114 -27 164 -65 l33 -25 63 20 c35 11 67 20 72 20 5 0 6 -25 2 -55 -3
-30 -4 -55 -1 -55 10 0 34 70 33 98 -1 16 2 34 6 41 4 6 3 11 -1 11 -10 0 -10
44 0 48 16 5 23 1 32 -20 6 -13 16 -22 23 -21 7 2 11 0 10 -5 -4 -10 23 -72
31 -72 4 0 26 9 49 20 53 26 58 25 103 -6 35 -24 39 -25 66 -10 19 9 34 11 44
5 10 -6 10 -9 2 -9 -7 0 -12 -3 -11 -7 4 -13 -40 -96 -68 -130 -15 -18 -22
-33 -16 -33 12 0 51 46 75 90 17 32 18 32 38 14 11 -10 17 -24 15 -31 -3 -7
-1 -13 4 -13 6 0 10 5 10 11 0 6 7 8 18 4 14 -5 15 -4 5 6 -7 7 -13 26 -13 41
0 52 75 63 119 19 19 -19 20 -19 38 1 35 39 113 70 195 77 43 4 78 3 78 -2 0
-4 5 -5 10 -2 6 4 17 2 24 -4 10 -9 15 -8 19 3 5 14 21 14 136 1 36 -4 50 -1
78 20 l33 26 0 269 c0 205 -3 269 -12 273 -10 4 -10 7 0 18 6 7 12 20 12 29
-1 11 -7 8 -21 -10 -19 -22 -28 -25 -80 -23 -60 2 -119 24 -119 46 0 6 -5 4
-11 -5 -5 -10 -17 -18 -26 -18 -9 0 -13 -3 -10 -6 3 -4 2 -15 -4 -26 -9 -17
-8 -18 8 -11 21 11 43 11 43 1 0 -5 0 -12 0 -16 0 -4 -25 -8 -55 -8 -54 1 -55
2 -57 31 -1 19 -3 11 -7 -20 -4 -35 -10 -50 -21 -50 -12 0 -15 11 -13 50 l2
50 -10 -42 c-11 -48 -39 -60 -39 -17 0 16 -4 23 -11 18 -8 -4 -9 4 -4 27 10
47 36 109 45 109 4 0 5 10 3 23 -7 35 19 52 58 38 18 -6 43 -11 56 -11 13 0
22 -4 19 -9 -3 -5 5 -11 19 -13 13 -3 22 -1 19 3 -3 5 4 9 15 9 11 0 23 -5 26
-11 4 -6 13 -8 21 -5 8 3 14 2 14 -2 0 -4 21 -8 48 -9 26 -1 57 -5 70 -8 22
-5 22 -4 22 95 l0 100 -1000 0 -1000 0 0 -108z m1066 -41 c-4 -5 10 -7 32 -4
27 4 48 -1 75 -16 21 -12 44 -21 53 -21 12 0 14 -13 12 -70 -2 -58 -5 -69 -18
-65 -16 4 -103 7 -132 4 -18 -2 -34 -29 -18 -29 6 0 10 -19 10 -43 0 -24 7
-52 16 -63 14 -18 15 -18 4 4 -13 26 -6 72 11 72 6 0 7 -5 3 -11 -5 -8 -1 -8
13 0 14 7 23 7 31 -1 8 -8 16 -7 28 3 16 13 17 12 12 -8 -4 -16 -2 -23 8 -23
8 0 14 4 14 9 0 5 11 8 25 7 24 -1 34 -19 40 -71 3 -21 -8 -47 -18 -46 -24 2
-67 -14 -67 -25 0 -17 5 -17 32 -3 19 10 20 9 16 -20 -4 -24 -2 -28 9 -20 21
18 15 -6 -7 -26 -23 -21 -27 -47 -6 -39 11 4 13 0 9 -15 -8 -31 -43 -6 -37 27
3 13 2 32 -1 43 -5 15 -9 16 -25 7 -14 -9 -22 -9 -36 3 -16 13 -17 12 -11 -5
7 -17 4 -18 -25 -10 -42 10 -116 11 -148 2 -14 -4 -19 -5 -12 -2 6 3 12 13 12
21 0 11 -4 13 -12 6 -7 -5 -28 -9 -45 -7 -26 1 -33 -2 -33 -17 0 -21 -12 -30
-27 -21 -13 9 -12 93 2 88 66 -24 74 -15 11 14 l-43 21 8 42 c4 23 8 45 9 49
0 9 36 5 46 -5 4 -4 16 -7 28 -7 15 0 17 3 8 12 -7 7 -12 17 -12 23 0 5 5 3
10 -5 8 -12 13 -13 30 -2 11 7 20 8 20 3 0 -5 9 -11 21 -14 17 -4 18 -3 8 9
-10 12 -9 13 5 8 11 -4 16 -1 16 14 0 11 6 22 13 25 30 11 -10 21 -81 22 l-78
0 4 55 c5 74 30 99 114 116 81 16 80 16 74 5z m-588 -219 c2 -14 -2 -22 -11
-22 -20 0 -26 9 -20 31 7 25 27 19 31 -9z m332 -103 c0 -11 -3 -11 -24 -3 -23
9 -20 23 4 17 11 -3 20 -9 20 -14z m537 -1 c-16 -17 -23 -19 -25 -9 -4 14 15
31 35 31 7 0 2 -10 -10 -22z m43 -100 c-6 -22 -23 -51 -37 -64 -26 -24 -63
-32 -63 -14 0 11 41 30 51 24 4 -2 12 3 19 11 11 14 10 14 -14 5 -31 -12 -42
-13 -33 -3 4 3 3 11 -3 18 -5 6 -6 24 -1 40 7 28 8 29 20 10 12 -19 12 -19 7
3 -2 13 -2 30 1 38 9 23 23 16 24 -13 1 -21 3 -23 6 -8 10 46 15 50 25 21 7
-20 7 -40 -2 -68z m-596 60 c16 -26 32 -148 19 -148 -34 1 -73 73 -73 136 0
27 4 34 20 34 11 0 26 -10 34 -22z m353 -129 c13 -9 20 -19 15 -23 -4 -4 -7
-11 -8 -14 -2 -33 -18 -71 -26 -66 -6 4 -14 0 -19 -7 -7 -11 -9 -11 -9 -1 0 7
-4 10 -10 7 -5 -3 -10 0 -10 7 0 8 -5 6 -11 -4 -12 -21 -57 -24 -65 -4 -3 8
-16 13 -30 11 -18 -2 -28 4 -33 19 -32 85 -22 95 96 93 62 -2 95 -7 110 -18z
m-272 -27 c-8 -9 -35 20 -28 31 4 6 11 3 19 -8 8 -10 12 -21 9 -23z m295 -261
c0 -10 -7 -22 -16 -25 -10 -4 -13 -2 -7 7 4 6 8 15 9 20 3 15 4 17 9 17 3 0 5
-9 5 -19z"/>
<path d="M995 2510 c-4 -6 -11 -8 -16 -5 -5 4 -9 -3 -9 -14 0 -14 6 -21 20
-21 25 0 26 -18 3 -36 -12 -9 -14 -13 -5 -14 18 0 40 22 35 36 -2 7 10 14 27
16 16 3 30 1 30 -4 0 -4 9 -8 20 -8 15 0 20 7 20 27 0 14 -3 23 -7 20 -3 -4
-12 -2 -19 4 -9 7 -18 6 -33 -3 -16 -10 -23 -10 -33 0 -15 15 -25 15 -33 2z"/>
<path d="M1057 2454 c-9 -9 21 -36 32 -30 5 4 11 1 13 -5 2 -7 10 -10 18 -7 9
3 3 9 -17 18 -17 8 -29 18 -27 22 6 9 -10 11 -19 2z"/>
<path d="M1310 2419 c0 -5 5 -7 10 -4 6 3 10 8 10 11 0 2 -4 4 -10 4 -5 0 -10
-5 -10 -11z"/>
<path d="M755 2460 c3 -5 8 -10 11 -10 2 0 4 5 4 10 0 6 -5 10 -11 10 -5 0 -7
-4 -4 -10z"/>
<path d="M785 2451 c-3 -5 -1 -12 5 -16 5 -3 10 1 10 9 0 18 -6 21 -15 7z"/>
<path d="M760 2412 c0 -15 27 -45 32 -36 3 5 -3 17 -14 27 -10 9 -18 13 -18 9z"/>
<path d="M1017 2330 c5 -19 33 -17 33 2 0 5 6 6 13 2 6 -4 9 -3 5 1 -5 5 -19
9 -32 11 -19 2 -23 -1 -19 -16z"/>
<path d="M950 2321 c0 -6 4 -13 10 -16 6 -3 7 1 4 9 -7 18 -14 21 -14 7z"/>
<path d="M321 2835 c0 -11 4 -29 9 -40 8 -18 9 -18 9 5 0 14 -4 32 -9 40 -8
12 -10 12 -9 -5z"/>
<path d="M371 2824 c0 -11 3 -14 6 -6 3 7 2 16 -1 19 -3 4 -6 -2 -5 -13z"/>
<path d="M1676 2804 c-7 -19 -8 -69 -1 -62 7 6 17 78 11 78 -2 0 -7 -7 -10
-16z"/>
<path d="M1632 2785 c0 -16 2 -22 5 -12 2 9 2 23 0 30 -3 6 -5 -1 -5 -18z"/>
<path d="M1880 2718 c0 -4 4 -8 9 -8 6 0 12 4 15 8 3 5 -1 9 -9 9 -8 0 -15 -4
-15 -9z"/>
<path d="M1915 2711 c-3 -5 -1 -12 5 -16 5 -3 10 1 10 9 0 18 -6 21 -15 7z"/>
<path d="M668 2013 c7 -3 16 -2 19 1 4 3 -2 6 -13 5 -11 0 -14 -3 -6 -6z"/>
<path d="M709 1989 c4 -13 13 -24 20 -25 6 -1 7 0 1 3 -5 2 -10 11 -10 18 0 8
-4 17 -10 20 -6 4 -7 -2 -1 -16z"/>
<path d="M28 1949 c-38 -28 -40 -79 -4 -79 14 0 31 -7 40 -15 8 -8 29 -18 47
-22 l31 -6 -23 -13 c-13 -7 -45 -16 -72 -19 l-47 -7 0 -643 0 -644 32 -4 33
-4 -32 -1 -33 -2 0 -245 0 -246 695 1 c500 1 693 5 688 12 -4 8 0 9 13 2 10
-5 151 -10 312 -11 l292 -3 0 899 0 899 -22 6 c-23 6 -23 6 -3 22 19 16 19 16
-10 10 -16 -4 -39 -9 -50 -12 -12 -3 -7 3 13 16 19 13 41 20 53 17 19 -5 20
-2 17 54 -2 38 -7 59 -15 59 -6 0 -14 -4 -17 -9 -3 -4 -23 -11 -45 -15 -44 -7
-61 -23 -40 -37 11 -7 9 -10 -9 -15 -20 -6 -21 -8 -6 -19 15 -11 14 -13 -9
-19 -15 -3 -27 -11 -27 -17 0 -6 -5 -7 -11 -3 -6 3 -14 2 -18 -3 -3 -6 -23
-13 -44 -16 -59 -9 -59 16 0 103 9 14 -7 3 -35 -24 -28 -28 -59 -66 -68 -85
-9 -20 -39 -63 -66 -95 -59 -71 -87 -123 -133 -252 -40 -111 -39 -105 -22 -98
7 2 18 -7 25 -23 9 -22 10 -23 6 -4 -5 17 -3 21 6 16 9 -5 11 -4 6 4 -12 18 2
59 22 65 13 5 17 17 16 56 0 28 3 53 8 56 4 3 8 1 8 -5 0 -14 33 -6 38 9 3 8
-1 11 -11 7 -10 -4 -16 2 -20 18 -3 18 1 26 16 31 14 4 16 8 7 14 -9 6 -9 9 0
15 7 4 16 2 20 -5 6 -9 10 -7 15 9 8 26 25 28 25 2 0 -28 20 -37 21 -9 1 13 1
26 0 31 -2 12 37 8 42 -5 4 -9 6 -7 6 3 1 9 7 16 15 16 9 0 13 -8 10 -21 -8
-32 -10 -38 -29 -81 -16 -35 -19 -38 -26 -20 -7 18 -8 18 -8 -4 -1 -22 -16
-85 -29 -121 -3 -8 -6 -27 -6 -42 -1 -15 -11 -37 -21 -49 -11 -12 -14 -19 -6
-14 11 6 13 4 8 -8 -3 -9 -1 -18 6 -20 9 -3 9 -8 0 -18 -7 -7 -13 -21 -13 -30
0 -28 -16 -30 -18 -3 -3 40 -33 124 -44 124 -6 0 -4 8 3 17 12 15 12 16 -1 8
-8 -6 -18 -10 -22 -10 -3 0 -9 -3 -12 -8 -3 -4 -3 -5 0 -2 4 2 13 -3 22 -11
18 -19 27 -84 12 -84 -6 0 -8 6 -4 13 4 6 3 8 -1 4 -14 -12 -15 -38 -2 -31 8
5 8 3 0 -6 -10 -11 -15 -11 -27 -1 -13 11 -15 9 -11 -10 3 -12 10 -27 16 -33
9 -8 10 -6 5 8 -5 15 -4 17 8 7 11 -9 15 -9 20 1 3 7 4 -2 1 -21 -5 -35 -31
-63 -51 -57 -6 3 -11 -3 -10 -11 0 -9 -9 -17 -23 -20 -34 -5 -37 -10 -17 -32
11 -12 13 -21 7 -25 -6 -4 -8 -13 -5 -20 6 -16 -64 -88 -77 -80 -5 3 -6 -3 -2
-12 4 -11 8 -13 11 -6 2 7 12 12 23 12 15 0 19 -7 19 -32 0 -30 0 -31 -20 -13
-31 28 -24 9 8 -20 15 -15 20 -25 12 -23 -8 2 -14 -3 -12 -10 1 -8 -2 -11 -7
-8 -5 3 -14 -1 -21 -9 -7 -8 -22 -15 -33 -15 -11 0 -18 -2 -15 -5 3 -3 -10
-21 -28 -39 -19 -19 -34 -40 -34 -47 0 -8 11 3 25 22 24 37 45 51 68 45 6 -1
9 -1 4 1 -4 3 -4 9 -1 14 3 6 11 5 20 -2 12 -10 13 -9 8 6 -5 13 -3 16 7 13 8
-3 14 -10 14 -15 0 -6 3 -15 8 -19 15 -15 6 -24 -14 -13 -14 7 -19 7 -15 0 4
-6 25 -15 47 -21 28 -8 43 -18 49 -36 15 -38 12 -49 -8 -31 -28 25 -35 20 -9
-5 12 -13 24 -22 27 -21 9 3 -2 -92 -12 -104 -6 -7 -5 -14 2 -18 6 -4 10 -3 9
2 -1 4 3 21 10 37 9 22 15 26 23 18 9 -9 7 -16 -5 -30 -9 -10 -17 -24 -17 -30
0 -6 -8 -16 -17 -21 -14 -8 -15 -10 -3 -11 10 0 7 -7 -10 -24 -18 -17 -29 -21
-38 -13 -9 7 -11 6 -7 -5 11 -29 -29 -41 -212 -64 l-53 -6 0 41 0 41 -147 1
c-260 3 -712 15 -609 17 77 2 96 5 88 15 -5 6 -12 28 -16 47 -4 26 -4 30 4 15
7 -15 8 -9 6 27 -2 50 22 115 42 111 6 -2 9 3 6 10 -2 7 18 37 46 66 43 45 50
49 44 27 -5 -23 -3 -26 19 -26 14 0 29 5 32 10 3 6 1 10 -5 10 -6 0 -8 5 -4
12 4 7 3 8 -5 4 -6 -4 -9 -12 -6 -17 4 -5 -1 -9 -9 -9 -13 0 -14 4 -3 28 19
44 53 60 42 20 -5 -19 -4 -20 5 -8 9 12 11 9 8 -16 -3 -23 -1 -31 9 -27 8 3
13 -2 13 -13 0 -9 3 -14 7 -11 3 4 15 -1 26 -10 19 -17 20 -17 8 4 -6 12 -8
28 -5 36 3 8 1 18 -5 22 -6 3 -11 1 -11 -6 0 -7 -9 -2 -20 11 -22 26 -25 36
-10 45 6 3 10 -1 10 -9 0 -8 4 -17 9 -20 13 -8 41 4 41 17 0 7 -4 7 -12 -1
-16 -16 -28 -15 -28 3 0 20 -34 37 -48 23 -8 -8 -11 -6 -11 8 1 28 -21 108
-32 119 -5 5 -9 14 -9 19 0 6 5 5 12 -2 7 -7 19 -12 27 -12 13 0 13 2 2 9 -9
6 -10 11 -2 15 8 5 7 12 -3 22 -16 15 -41 20 -32 5 3 -5 -1 -14 -8 -20 -11
-10 -16 -7 -22 11 -4 13 -7 28 -6 35 2 6 -2 14 -8 18 -6 4 -7 -1 -3 -11 4 -11
3 -15 -5 -11 -6 4 -12 -1 -14 -10 -3 -14 -11 -8 -32 24 -34 51 -31 73 7 43 25
-20 28 -20 49 -6 l22 16 -26 0 c-17 0 -36 12 -57 35 -37 42 -43 43 -41 8 1
-16 2 -36 1 -46 -1 -17 -2 -17 -20 0 -15 14 -22 42 -31 128 -13 134 -40 270
-50 254 -6 -8 -12 -4 -21 12 -40 69 -40 111 0 136 16 10 21 6 37 -27 11 -22
24 -36 31 -33 7 3 20 0 28 -7 8 -6 18 -9 23 -6 15 9 60 -106 54 -142 -2 -20 0
-32 7 -32 6 0 11 -10 11 -22 0 -39 13 -50 44 -38 19 7 26 15 22 26 -3 9 -6 18
-6 20 0 3 -4 3 -10 -1 -5 -3 -7 -12 -3 -20 3 -8 1 -15 -4 -15 -6 0 -16 26 -23
58 -7 31 -36 105 -66 165 -30 59 -51 107 -49 107 3 0 -8 19 -25 42 -16 22 -30
45 -30 50 0 5 -14 24 -31 42 -16 19 -36 42 -44 52 -13 18 -14 18 -15 2 0 -13
-9 -18 -32 -19 -18 0 -42 -2 -53 -5 -25 -5 -105 17 -105 30 0 5 7 14 16 20 26
20 -30 13 -60 -7 -14 -9 -32 -17 -41 -17 -23 0 -18 28 5 32 12 2 21 7 21 13 1
17 -15 15 -43 -6z m1916 -24 c-25 -19 -35 -19 -28 0 4 8 16 15 27 15 20 0 20
0 1 -15z m-1614 -69 c0 -14 -4 -28 -10 -31 -5 -3 -10 -1 -10 5 0 6 -4 8 -10 5
-5 -3 -10 -1 -10 5 0 7 -7 10 -15 7 -8 -4 -17 -2 -20 3 -7 12 24 29 53 30 17
0 22 -6 22 -24z m137 -768 c-3 -7 -5 -2 -5 12 0 14 2 19 5 13 2 -7 2 -19 0
-25z m10 -40 c-3 -8 -6 -5 -6 6 -1 11 2 17 5 13 3 -3 4 -12 1 -19z m116 -7
c11 -8 17 -29 18 -55 0 -23 3 -34 7 -26 4 8 13 16 21 18 11 2 12 0 4 -10 -16
-19 -19 -50 -6 -74 16 -28 5 -40 -46 -49 -32 -5 -42 -4 -36 5 4 6 13 9 21 6 8
-3 13 0 11 7 -1 7 7 11 21 9 12 -2 22 2 22 7 0 6 -5 10 -12 9 -7 -2 -12 3 -13
10 0 7 -7 17 -15 22 -13 9 -13 11 0 20 12 8 10 10 -10 10 -24 1 -24 1 -6 15
13 10 15 15 6 15 -9 0 -7 5 6 15 18 14 18 14 -3 9 -17 -5 -22 -1 -26 18 -4 20
-5 19 -6 -7 -2 -26 -3 -27 -11 -10 -15 36 -11 51 13 50 13 0 31 -6 40 -14z
m871 -82 c21 -10 23 -14 13 -32 -17 -29 -47 -59 -47 -46 0 5 -3 8 -7 6 -5 -3
-6 15 -4 39 3 47 7 50 45 33z m43 -331 c-3 -8 -6 -5 -6 6 -1 11 2 17 5 13 3
-3 4 -12 1 -19z m183 -2 c0 -9 -8 -20 -19 -25 -10 -6 -22 -26 -25 -46 -5 -27
-12 -35 -28 -35 -20 0 -21 14 -6 67 2 6 -1 12 -7 13 -5 1 -15 -15 -21 -36 -15
-54 -34 -56 -34 -4 0 67 10 77 80 79 47 1 60 -2 60 -13z m-160 -91 c0 -8 -4
-15 -10 -15 -5 0 -7 7 -4 15 4 8 8 15 10 15 2 0 4 -7 4 -15z m-1282 -42 c-32
-2 -86 -2 -120 0 -35 2 -9 3 57 3 66 0 94 -1 63 -3z m1272 -72 c0 -5 -7 -11
-15 -15 -8 -3 -15 -17 -15 -30 0 -18 4 -24 15 -20 10 4 15 0 15 -11 0 -12 -7
-16 -27 -13 -24 3 -29 9 -34 43 -3 22 -7 35 -8 29 -2 -16 -61 -24 -61 -8 0 6
21 16 48 22 63 13 82 14 82 3z m-144 -86 c-5 -27 -12 -34 -39 -38 -43 -7 -51
3 -43 57 10 61 36 64 37 4 l1 -43 9 40 c18 76 49 58 35 -20z m74 35 c0 -6 -7
-13 -15 -16 -8 -4 -15 -15 -15 -25 0 -12 -7 -19 -19 -19 -14 0 -17 6 -13 28 3
15 10 30 16 34 16 11 46 10 46 -2z m-1210 -195 c0 -118 -1 -125 -20 -125 -19
0 -20 7 -20 125 0 118 1 125 20 125 19 0 20 -7 20 -125z m101 103 l0 -23 10
23 c7 20 15 23 51 20 l43 -3 6 -105 5 -105 2 108 2 107 45 0 c62 0 68 -14 59
-150 -6 -98 -9 -110 -25 -110 -17 0 -19 9 -19 95 0 57 -4 95 -10 95 -6 0 -10
-37 -10 -90 0 -75 -3 -92 -16 -97 -10 -4 -22 1 -29 11 -12 15 -13 15 -19 0 -8
-21 -75 -12 -93 13 -12 16 -13 16 -13 0 0 -13 -9 -17 -40 -17 l-40 0 0 118 c0
65 3 122 7 125 3 4 24 7 45 7 33 0 38 -3 39 -22z m430 -63 c3 -44 6 -61 7 -39
1 23 8 47 16 53 18 15 63 -2 69 -26 4 -14 5 -12 6 6 1 21 5 23 41 19 38 -3 39
-3 42 32 2 28 8 36 26 38 24 4 24 3 20 -95 l-3 -98 30 -2 c19 -1 22 0 8 4 -27
5 -39 55 -24 96 9 22 17 27 46 27 24 0 35 -5 35 -14 0 -26 -12 -46 -29 -47
-13 0 -13 -2 -1 -6 22 -9 30 -24 30 -60 0 -56 -7 -63 -66 -63 -40 0 -56 4 -63
18 -10 16 -10 16 -11 0 0 -24 -68 -25 -77 -2 -5 15 -7 15 -15 0 -14 -25 -67
-21 -78 7 l-9 22 0 -22 c-1 -16 -7 -23 -21 -23 -19 0 -20 7 -20 95 0 57 -4 95
-10 95 -6 0 -10 -39 -10 -96 0 -93 -1 -95 -22 -92 -22 3 -23 6 -19 96 2 62 -1
92 -8 92 -7 0 -11 -33 -11 -95 0 -87 -2 -95 -19 -95 -11 0 -22 4 -26 10 -3 5
-3 63 1 130 l7 121 76 -3 76 -3 6 -80z m877 -172 c-87 -2 -229 -2 -315 0 -87
1 -16 3 157 3 173 0 244 -2 158 -3z m-281 -19 c-3 -3 -12 -4 -19 -1 -8 3 -5 6
6 6 11 1 17 -2 13 -5z"/>
<path d="M313 233 c-20 -4 -23 -10 -23 -58 0 -48 2 -53 25 -57 25 -5 25 -4 25
58 0 35 -1 63 -2 63 -2 -1 -13 -4 -25 -6z"/>
<path d="M390 169 c0 -37 4 -58 10 -54 13 8 13 115 0 115 -6 0 -10 -27 -10
-61z"/>
<path d="M860 149 c0 -12 -8 -23 -20 -26 -25 -7 -26 -23 -1 -23 12 0 21 9 25
25 4 14 17 30 29 35 21 8 21 9 -5 9 -22 1 -28 -4 -28 -20z"/>
<path d="M1426 1923 c-6 -14 -5 -15 5 -6 7 7 10 15 7 18 -3 3 -9 -2 -12 -12z"/>
<path d="M480 1574 c0 -8 5 -12 10 -9 6 4 8 11 5 16 -9 14 -15 11 -15 -7z"/>
<path d="M1560 1570 c0 -5 5 -10 10 -10 6 0 10 5 10 10 0 6 -4 10 -10 10 -5 0
-10 -4 -10 -10z"/>
<path d="M490 1541 c0 -16 28 -33 35 -21 4 6 3 10 -2 9 -20 -3 -27 2 -13 11
13 8 12 10 -2 10 -10 0 -18 -4 -18 -9z"/>
<path d="M1356 1444 c-11 -8 -16 -14 -10 -14 5 0 2 -5 -6 -10 -12 -8 -13 -11
-1 -19 11 -7 11 -9 0 -14 -10 -4 -8 -6 4 -6 18 -1 40 41 35 65 -2 10 -7 9 -22
-2z"/>
<path d="M640 1421 c0 -38 10 -62 21 -55 5 3 7 10 4 15 -4 5 -2 9 3 9 6 0 8 9
5 20 -3 11 -9 17 -14 14 -5 -3 -9 -1 -9 5 0 5 6 12 13 14 7 3 5 6 -5 6 -13 1
-18 -7 -18 -28z"/>
<path d="M502 1270 c0 -19 2 -27 5 -17 2 9 2 25 0 35 -3 9 -5 1 -5 -18z"/>
<path d="M1431 1211 c-8 -5 -23 -8 -33 -6 -11 3 -18 -2 -18 -12 0 -9 3 -13 7
-10 3 4 11 3 17 -2 15 -12 56 5 56 24 0 17 -9 19 -29 6z"/>
<path d="M824 1186 c-9 -20 -9 -23 2 -19 8 3 14 14 14 24 0 25 -3 24 -16 -5z"/>
<path d="M766 1187 c3 -8 11 -14 19 -14 11 0 12 4 4 14 -6 7 -15 13 -20 13 -5
0 -6 -6 -3 -13z"/>
<path d="M1405 1140 c-3 -5 -1 -10 4 -10 6 0 11 5 11 10 0 6 -2 10 -4 10 -3 0
-8 -4 -11 -10z"/>
<path d="M731 1113 c-10 -26 -10 -27 4 -9 8 11 15 23 15 28 0 15 -7 8 -19 -19z"/>
<path d="M626 1098 c3 -5 10 -6 15 -3 13 9 11 12 -6 12 -8 0 -12 -4 -9 -9z"/>
<path d="M1376 1093 c-4 -9 -1 -21 5 -27 9 -8 10 -8 5 2 -4 7 -1 15 8 18 20 8
21 24 2 24 -8 0 -17 -8 -20 -17z"/>
<path d="M695 1020 c-3 -6 1 -7 9 -4 18 7 21 14 7 14 -6 0 -13 -4 -16 -10z"/>
<path d="M710 999 c0 -5 5 -7 10 -4 6 3 10 8 10 11 0 2 -4 4 -10 4 -5 0 -10
-5 -10 -11z"/>
<path d="M860 980 c0 -5 5 -10 11 -10 5 0 7 5 4 10 -3 6 -8 10 -11 10 -2 0 -4
-4 -4 -10z"/>
<path d="M810 970 c-8 -5 -10 -10 -5 -10 6 0 17 5 25 10 8 5 11 10 5 10 -5 0
-17 -5 -25 -10z"/>
<path d="M685 960 c-3 -5 -1 -10 6 -10 8 0 9 -3 0 -13 -12 -15 -5 -27 16 -27
7 0 13 7 13 16 0 21 -27 47 -35 34z"/>
<path d="M770 956 c0 -2 7 -7 16 -10 8 -3 12 -2 9 4 -6 10 -25 14 -25 6z"/>
<path d="M1270 845 c-10 -12 -9 -16 4 -21 9 -4 20 -4 23 0 4 3 -2 6 -12 6 -14
0 -15 3 -5 15 7 8 10 15 7 15 -2 0 -10 -7 -17 -15z"/>
<path d="M670 756 c0 -2 7 -9 15 -16 9 -7 15 -8 15 -2 0 5 -7 12 -15 16 -8 3
-15 4 -15 2z"/>
<path d="M1241 718 c-1 -15 -4 -29 -9 -32 -4 -2 -6 -25 -4 -49 3 -36 7 -44 19
-40 8 3 10 9 5 12 -11 7 -21 71 -11 71 4 0 10 -8 12 -17 3 -10 5 -4 5 12 0 17
-3 39 -8 50 -8 18 -9 17 -9 -7z"/>
<path d="M580 635 c-7 -9 -11 -17 -9 -20 3 -2 10 5 17 15 14 24 10 26 -8 5z"/>
<path d="M597 616 c-4 -9 -3 -15 2 -11 5 3 11 0 13 -7 3 -7 7 -5 11 6 4 9 3
15 -2 11 -5 -3 -11 0 -13 7 -3 7 -7 5 -11 -6z"/>
<path d="M865 620 c-3 -6 1 -7 9 -4 18 7 21 14 7 14 -6 0 -13 -4 -16 -10z"/>
<path d="M757 586 c-14 -31 -14 -34 0 -32 10 2 17 14 18 34 2 18 2 32 1 32 -1
0 -10 -15 -19 -34z"/>
<path d="M789 598 c-9 -16 -8 -19 2 -13 9 6 11 3 6 -8 -3 -10 -2 -17 3 -17 6
0 10 9 10 20 0 11 4 20 9 20 14 0 5 -39 -13 -59 -14 -15 -13 -17 4 -17 10 0
17 2 15 4 -2 2 3 22 11 44 8 22 14 42 14 43 0 1 -11 3 -25 3 -15 0 -30 -9 -36
-20z"/>
<path d="M995 600 c3 -5 10 -10 16 -10 5 0 9 5 9 10 0 6 -7 10 -16 10 -8 0
-12 -4 -9 -10z"/>
<path d="M720 589 c0 -5 5 -7 10 -4 6 3 10 8 10 11 0 2 -4 4 -10 4 -5 0 -10
-5 -10 -11z"/>
<path d="M880 590 c-13 -8 -12 -10 3 -10 9 0 17 5 17 10 0 12 -1 12 -20 0z"/>
<path d="M961 588 c4 -31 -2 -38 -27 -34 -21 4 -24 3 -14 -9 7 -8 10 -21 7
-28 -3 -8 1 -14 9 -15 48 -5 67 -3 74 8 6 10 9 9 12 -1 2 -7 11 -10 22 -6 9 4
14 12 10 18 -5 8 -9 8 -14 -1 -12 -20 -19 11 -8 39 5 13 6 26 3 29 -3 3 -5 0
-5 -6 0 -6 -6 -9 -14 -6 -10 4 -12 -2 -9 -21 4 -20 2 -24 -11 -19 -9 3 -16 11
-15 18 3 26 -2 46 -11 46 -6 0 -10 -6 -9 -12z"/>
<path d="M500 571 c-11 -22 -13 -51 -3 -51 3 0 15 8 25 17 19 17 19 16 14 -12
-6 -29 -6 -29 7 3 7 18 15 30 19 27 3 -3 8 1 11 9 8 21 -19 14 -48 -14 -28
-26 -30 -24 -15 14 11 30 5 34 -10 7z"/>
<path d="M850 575 c0 -8 4 -15 10 -15 5 0 7 7 4 15 -4 8 -8 15 -10 15 -2 0 -4
-7 -4 -15z"/>
<path d="M601 564 c0 -11 3 -14 6 -6 3 7 2 16 -1 19 -3 4 -6 -2 -5 -13z"/>
<path d="M872 550 c-6 -11 -12 -28 -12 -37 1 -16 2 -16 13 2 6 11 12 22 12 25
0 3 4 11 8 18 5 6 4 12 0 12 -5 0 -14 -9 -21 -20z"/>
</g>
</svg>
